<svg xmlns="http://www.w3.org/2000/svg" xmlns:xlink="http://www.w3.org/1999/xlink" width="106.582" height="30.668" viewBox="0 0 106.582 30.668"><defs><style>.a{fill:#191919;}.b{fill:url(#a);}.c{fill:url(#b);}.d{opacity:0.2;}.e{fill:url(#c);}.f{fill:url(#d);}.g{fill:url(#e);}.h{fill:url(#f);}.i{fill:url(#g);}</style><linearGradient id="a" y1="0.5" x2="1" y2="0.5" gradientUnits="objectBoundingBox"><stop offset="0" stop-color="#fdb913"/><stop offset="1" stop-color="#df5326"/></linearGradient><linearGradient id="b" x1="0" y1="0.5" x2="1" y2="0.5" xlink:href="#a"/><linearGradient id="c" x1="-0.199" y1="0.345" x2="1.024" y2="0.596" xlink:href="#a"/><linearGradient id="d" x1="0.018" y1="0.974" x2="1.047" y2="0.108" gradientUnits="objectBoundingBox"><stop offset="0" stop-color="#df5326"/><stop offset="1" stop-color="#fdb913"/></linearGradient><linearGradient id="e" x1="-10.833" y1="41.42" x2="-9.833" y2="41.42" xlink:href="#a"/><linearGradient id="f" x1="-8.921" y1="21.082" x2="-8.194" y2="21.082" xlink:href="#a"/><linearGradient id="g" x1="-11.585" y1="29.107" x2="-10.809" y2="29.107" xlink:href="#a"/></defs><path class="a" d="M704.929,60.541h4.127l-1.108-15.25h-1.91Z" transform="translate(-660.019 -30.351)"/><path class="a" d="M714.172,45.291h-4.235l1.108,15.25h2.019Z" transform="translate(-660.933 -30.351)"/><path class="a" d="M710.867,32.016h-.042a4.395,4.395,0,1,1-1.089,8.66l.063.84a4.811,4.811,0,1,0,1.068-9.5Z" transform="translate(-660.896 -27.927)"/><path class="a" d="M705.553,36.7a4.319,4.319,0,0,1,1.486-3.389,4.809,4.809,0,0,0,.834,8.046l-.065-.881A4.161,4.161,0,0,1,705.553,36.7Z" transform="translate(-660.075 -28.163)"/><path class="b" d="M707.893,40.245a4.159,4.159,0,0,1-2.269-3.783,4.267,4.267,0,0,1,1.711-3.561Zm2.149-8.229a4.383,4.383,0,0,0-1.68.333l.613,8.326a4.4,4.4,0,1,0,1.067-8.659Z" transform="translate(-660.145 -27.927)"/><path class="a" d="M662.4,60.661c-.938.178-3.426.2-4.326-.805l0,0a5.219,5.219,0,0,1-1.171-1.976s-1.693-5.194-2.4-7.38a5.81,5.81,0,0,1-2.884-.275,1.894,1.894,0,0,1-.805-2.43l.624-1.255a2.6,2.6,0,0,1,.313-.5c-.381.072-.67.292-.973.9-.141.284-.624,1.256-.624,1.256a1.894,1.894,0,0,0,.805,2.43,5.809,5.809,0,0,0,2.883.275c.709,2.186,2.4,7.381,2.4,7.381a5.22,5.22,0,0,0,1.171,1.976l0,0c.9,1,3.387.983,4.326.8a4.722,4.722,0,0,0,2.22-.835A5.806,5.806,0,0,1,662.4,60.661Z" transform="translate(-649.986 -30.487)"/><path class="a" d="M663.7,52.313c.187-.445.378-.906.579-1.383.338-.8,4.718-13.661,5.513-15.812a3.641,3.641,0,0,1,1.76-2.061,5.2,5.2,0,0,0-2.42,2.462c-.795,2.151-5.175,15.015-5.513,15.812l-.134.32Z" transform="translate(-652.45 -28.117)"/><path class="c" d="M654.354,49.479c-.114-.36-.4-1.288-.674-2.4-.293-1.2-.352-1.391-.8-1.57-.553.012-.915.162-1.3.932l-.624,1.255a1.894,1.894,0,0,0,.805,2.43,5.81,5.81,0,0,0,2.884.275C654.494,49.916,654.385,49.579,654.354,49.479Z" transform="translate(-650.133 -30.391)"/><path class="d" d="M654.821,49.479c-.114-.36-.4-1.288-.674-2.4-.293-1.208-.353-1.392-.8-1.571.618.865.208,3.629.024,4.908a6.705,6.705,0,0,0,1.746-.014h0C654.961,49.916,654.852,49.579,654.821,49.479Z" transform="translate(-650.6 -30.391)"/><path class="e" d="M661.846,54.587c-.915-2.817-2.152-6.628-2.239-6.9-.4-1.266-.687-2.176-3.283-2.176h-2.975c.445.179.5.363.8,1.571.27,1.112.561,2.04.674,2.4.172.547,2.7,8.3,2.7,8.3a5.22,5.22,0,0,0,1.171,1.976C660.128,58.53,660.939,56.746,661.846,54.587Z" transform="translate(-650.6 -30.391)"/><g transform="translate(8.09 20.693)"><path class="d" d="M659.883,61c1.438-1.228,2.25-3.011,3.156-5.172l-1.138-3.5C662.436,58.514,659.885,61,659.883,61Z" transform="translate(-659.883 -52.33)"/><path class="d" d="M659.883,62.943Z" transform="translate(-659.883 -54.268)"/></g><path class="f" d="M673.9,37.564a2.789,2.789,0,0,1-3.007-4.507,3.641,3.641,0,0,0-1.76,2.061c-.8,2.151-5.176,15.015-5.513,15.812-1.178,2.786-2,5.075-3.735,6.555.9,1,3.387.983,4.326.805s2.873-.333,4.052-3.569c.427-1.171,4.5-13,6-17.321A2.813,2.813,0,0,1,673.9,37.564Z" transform="translate(-651.793 -28.117)"/><path class="a" d="M676.041,36.888a2.035,2.035,0,0,1-1.758-3.648,2.034,2.034,0,1,0,1.847,3.61C676.1,36.863,676.072,36.877,676.041,36.888Z" transform="translate(-654.194 -28.151)"/><circle class="g" cx="2.035" cy="2.035" r="2.035" transform="translate(18.278 6.695) rotate(-42.435)"/><path class="a" d="M685.977,35.244a1.144,1.144,0,0,1-.782-1.484,3.851,3.851,0,0,0-1.637-4.529,1.177,1.177,0,0,1-.356-1.672,1.189,1.189,0,0,1,.3-.3,1.153,1.153,0,0,0-.583.442,1.177,1.177,0,0,0,.356,1.672,3.851,3.851,0,0,1,1.637,4.529,1.168,1.168,0,0,0,1.761,1.333A1.163,1.163,0,0,1,685.977,35.244Z" transform="translate(-655.961 -27.058)"/><path class="h" d="M687.454,30.351a5.992,5.992,0,0,1,.036,4.052,1.167,1.167,0,0,1-1.451.8,1.144,1.144,0,0,1-.782-1.484,3.852,3.852,0,0,0-1.637-4.529,1.174,1.174,0,1,1,1.337-1.923A6.742,6.742,0,0,1,687.454,30.351Z" transform="translate(-656.024 -27.014)"/><path class="a" d="M681.179,35.935a1.165,1.165,0,0,1-.906-1.419,2.324,2.324,0,0,0-.828-2.307,1.184,1.184,0,0,1-.2-1.731,1.265,1.265,0,0,1,.227-.2,1.161,1.161,0,0,0-.508.34,1.184,1.184,0,0,0,.2,1.731,2.325,2.325,0,0,1,.828,2.307,1.165,1.165,0,0,0,.906,1.419,1.133,1.133,0,0,0,.883-.176A1.153,1.153,0,0,1,681.179,35.935Z" transform="translate(-655.224 -27.61)"/><path class="i" d="M682.526,32.581a4.236,4.236,0,0,1,.105,2.354,1.177,1.177,0,0,1-1.39.956,1.165,1.165,0,0,1-.906-1.419,2.324,2.324,0,0,0-.828-2.307,1.177,1.177,0,1,1,1.547-1.761A5.008,5.008,0,0,1,682.526,32.581Z" transform="translate(-655.287 -27.566)"/><path class="a" d="M743.98,45.28a1.239,1.239,0,0,0-1.251,1.144V56.768c0,.248.03.8-.292.8-.186,0-.389-.441-.466-.617l-3.742-8.914a5.082,5.082,0,0,0-1.105-2,2.452,2.452,0,0,0-3.628.153,3.563,3.563,0,0,0-.731,2.334V59.4h0a1.247,1.247,0,0,0,2.483,0h0V48.881a.729.729,0,0,1,.2-.624c.247-.17.433.239.51.405l3.787,9.138a6.287,6.287,0,0,0,.462,1.139,3.414,3.414,0,0,0,.644.865,2.467,2.467,0,0,0,.884.548,2.439,2.439,0,0,0,2.752-.7,3.7,3.7,0,0,0,.741-2.356V46.424A1.24,1.24,0,0,0,743.98,45.28Z" transform="translate(-665.102 -30.349)"/><path class="a" d="M760.818,57.55h-4.667c-1.309,0-2.04-.067-2.622-.843a6.4,6.4,0,0,1-.873-3.786,6.393,6.393,0,0,1,.883-3.809c.589-.777,1.317-.951,2.612-.951h4.667a1.445,1.445,0,0,0,0-2.881h-4.667a5.492,5.492,0,0,0-4.492,1.887q-1.557,1.888-1.557,5.754,0,3.843,1.557,5.73a5.489,5.489,0,0,0,4.492,1.887h4.667a1.429,1.429,0,0,0,1.334-1.44A1.533,1.533,0,0,0,760.818,57.55Z" transform="translate(-668.268 -30.349)"/><g transform="translate(95.203 14.931)"><path class="a" d="M776.458,58.935h0l-6.641,0c-.238,0-.274-.088-.274-.248v-3.07c0-.217.074-.3.291-.3h5.709v0a1.256,1.256,0,0,0,0-2.5v-.025c-.146-.016-4.871.012-8.126,0-.633,0-.961.327-.961,1.045.009,2.648.005,4.622.007,7.27,0,.549.226.8.841.8h9.151a1.491,1.491,0,0,0,0-2.974Z" transform="translate(-766.457 -46.651)"/><path class="a" d="M767.417,49.717c.669,0,1.4,0,2.142,0V48.187h6.9a1.458,1.458,0,0,0,0-2.907H767.8a1.346,1.346,0,0,0-1.346,1.346v4.062h0C766.481,50.021,766.807,49.717,767.417,49.717Z" transform="translate(-766.457 -45.28)"/></g><path class="a" d="M698.461,53.945a3.722,3.722,0,0,0,2.238-1.48,4.18,4.18,0,0,0,.489-1.314,6.452,6.452,0,0,0,.157-1.414,6,6,0,0,0-.244-1.715,3.94,3.94,0,0,0-.763-1.437,3.737,3.737,0,0,0-1.319-.98,4.58,4.58,0,0,0-1.915-.325h-5.839c-1.308,0-1.29,1.339-1.29,1.739v3.669h0c.022-.667.348-.971.959-.971.669,0,1.187,0,1.928,0V48.187h4.2a1.441,1.441,0,0,1,1.441,1.441v.351a1.441,1.441,0,0,1-1.441,1.441h-5.02c-2.205,0-2.071-.069-2.071,2.9v5.061c0,.637.836,1.153,1.474,1.153s1.393-.516,1.393-1.153V54.324q0-.379.332-.378h1.7a.739.739,0,0,1,.782.491c.088.181,2.362,4.42,2.544,4.789,0,.011.007.021.012.032.333.665.8,1.292,1.569,1.281.707-.01,1.488-.688,1.207-1.281h0l-.038-.077c-.1-.2-.177-.377-.254-.523-.614-1.261-2.273-4.332-2.335-4.461A.164.164,0,0,1,698.461,53.945Z" transform="translate(-657.287 -30.349)"/><path class="a" d="M685.3,59.269h0l-3.977-12.152a2.717,2.717,0,0,0-1.01-1.479,2.377,2.377,0,0,0-2.714,0,2.785,2.785,0,0,0-1.029,1.479l-4.13,12.16c-.222.654.416,1.24,1.107,1.25a1.786,1.786,0,0,0,1.607-1.25l3.688-10.911c.056-.19.137-.19.19,0l1.8,5.567h-2.161l-.838,2.483h3.8l.925,2.853h0a1.8,1.8,0,0,0,1.618,1.257C684.879,60.516,685.52,59.926,685.3,59.269Z" transform="translate(-654.078 -30.337)"/><path class="a" d="M728.447,59.269h0l-3.977-12.152a2.717,2.717,0,0,0-1.009-1.479,2.377,2.377,0,0,0-2.714,0,2.778,2.778,0,0,0-1.028,1.479l-4.131,12.16c-.221.654.416,1.24,1.107,1.25a1.786,1.786,0,0,0,1.607-1.25l3.688-10.911c.057-.19.137-.19.19,0l1.8,5.567h-2.162l-.838,2.483h3.8l.925,2.853h0a1.8,1.8,0,0,0,1.618,1.257C728.029,60.516,728.67,59.926,728.447,59.269Z" transform="translate(-661.957 -30.337)"/></svg>